<svg id="efbee8vaalj1" xmlns="http://www.w3.org/2000/svg" xmlns:xlink="http://www.w3.org/1999/xlink" viewBox="0 0 1440 320" shape-rendering="geometricPrecision" text-rendering="geometricPrecision"><style><![CDATA[#efbee8vaalj2_ts {animation: efbee8vaalj2_ts__ts 2000ms linear infinite normal forwards}@keyframes efbee8vaalj2_ts__ts { 0% {transform: translate(720px,320px) scale(1,1.126101)} 45% {transform: translate(720px,320px) scale(1,1.547116)} 100% {transform: translate(720px,320px) scale(1,1.072487)} }]]></style><g id="efbee8vaalj2_ts" transform="translate(720,320) scale(1,1.126101)"><path id="efbee8vaalj2" d="M0,164.960778L6.200000,190.777577C12.300000,216.871232,25,268.089546,37,294.183201C49.200000,320,62,320,74,308.925770C86.200000,297.851540,98,275.703079,111,260.960510C123.100000,245.941086,135,239.019692,148,220.331929C160,201.644165,172,172.574311,185,179.703347C196.900000,187.109238,209,231.406159,222,224.000267C233.800000,216.871232,246,157.347244,258,164.960778C270.800000,172.574311,283,245.941086,295,264.628849C307.700000,283.316613,320,245.941086,332,209.257698C344.600000,172.574311,357,135.198784,369,135.406426C381.500000,135.198784,394,172.574311,406,176.035008C418.500000,179.495705,431,150.425851,443,153.886548C455.400000,157.347244,468,194.722771,480,198.183468C492.300000,201.644165,505,172.574311,517,168.629116C529.200000,164.960778,542,187.109238,554,212.926037C566.200000,239.019692,578,268.089546,591,275.703079C603.100000,283.316613,615,268.089546,628,260.960510C640,253.554619,652,253.554619,665,260.960510C676.900000,268.089546,689,283.316613,702,275.703079C713.800000,268.089546,726,239.019692,738,231.406159C750.800000,223.792625,763,239.019692,775,238.812050C787.700000,239.019692,800,223.792625,812,224.000267C824.600000,223.792625,837,239.019692,849,224.000267C861.500000,209.257698,874,164.960778,886,139.143979C898.500000,113.050324,911,106.128930,923,128.069749C935.400000,150.425851,948,201.644165,960,235.074497C972.300000,268.089546,985,283.316613,997,264.628849C1009.200000,245.941086,1022,194.722771,1034,168.629116C1046.200000,142.812317,1058,142.812317,1071,161.292439C1083.100000,179.495705,1095,216.871232,1108,212.926037C1120,209.257698,1132,164.960778,1145,168.629116C1156.900000,172.574311,1169,223.792625,1182,220.331929C1193.800000,216.871232,1206,157.347244,1218,150.218209C1230.800000,142.812317,1243,187.109238,1255,194.515129C1267.700000,201.644165,1280,172.574311,1292,168.629116C1304.600000,164.960778,1317,187.109238,1329,205.589360C1341.500000,223.792625,1354,239.019692,1366,249.886280C1378.500000,261.168152,1391,268.089546,1403,253.554619C1415.400000,239.019692,1428,201.644165,1434,183.440899L1440,164.960778L1440,320L1433.800000,320C1427.700000,320,1415,320,1403,320C1390.800000,320,1378,320,1366,320C1353.800000,320,1342,320,1329,320C1316.900000,320,1305,320,1292,320C1280,320,1268,320,1255,320C1243.100000,320,1231,320,1218,320C1206.200000,320,1194,320,1182,320C1169.200000,320,1157,320,1145,320C1132.300000,320,1120,320,1108,320C1095.400000,320,1083,320,1071,320C1058.500000,320,1046,320,1034,320C1021.500000,320,1009,320,997,320C984.600000,320,972,320,960,320C947.700000,320,935,320,923,320C910.800000,320,898,320,886,320C873.800000,320,862,320,849,320C836.900000,320,825,320,812,320C800,320,788,320,775,320C763.100000,320,751,320,738,320C726.200000,320,714,320,702,320C689.200000,320,677,320,665,320C652.300000,320,640,320,628,320C615.400000,320,603,320,591,320C578.500000,320,566,320,554,320C541.500000,320,529,320,517,320C504.600000,320,492,320,480,320C467.700000,320,455,320,443,320C430.800000,320,418,320,406,320C393.800000,320,382,320,369,320C356.900000,320,345,320,332,320C320,320,308,320,295,320C283.100000,320,271,320,258,320C246.200000,320,234,320,222,320C209.200000,320,197,320,185,320C172.300000,320,160,320,148,320C135.400000,320,123,320,111,320C98.500000,320,86,320,74,320C61.500000,320,49,320,37,320C24.600000,320,12,320,6,320L0,320Z" transform="translate(-720,-320)" fill="rgb(255,85,0)" stroke="none" stroke-width="1"/></g></svg>